<svg xmlns="http://www.w3.org/2000/svg" viewBox="0 0 160 80" role="img" aria-labelledby="title desc">
  <title id="title">BeaverPhone Family Contact Badge</title>
  <desc id="desc">Rounded card with a heart icon to represent the Mom contact.</desc>
  <defs>
    <linearGradient id="familyGradient" x1="0%" y1="0%" x2="100%" y2="100%">
      <stop offset="0%" stop-color="#ff8a80" />
      <stop offset="100%" stop-color="#ff1744" />
    </linearGradient>
    <filter id="shadow" x="-10%" y="-10%" width="120%" height="120%">
      <feDropShadow dx="0" dy="2" stdDeviation="3" flood-color="rgba(0, 0, 0, 0.25)" />
    </filter>
  </defs>
  <rect width="160" height="80" rx="12" fill="url(#familyGradient)" filter="url(#shadow)" />
  <g transform="translate(40 18)" fill="#ffffff">
    <path d="M40 13c4.8-8.9 18.1-8.7 22.7.4 2.1 4.2 1.6 9.4-1.3 13.1-5.9 7.6-16.6 15.9-21.4 19.1-.7.5-1.6.5-2.3 0-4.8-3.2-15.6-11.5-21.5-19.1-2.9-3.7-3.4-8.9-1.3-13.1 4.6-9.1 17.9-9.3 22.8-.4z" />
    <path d="M40 47c-7.5 0-13.5 6-13.5 13.5V53c0-7.5 6-13.5 13.5-13.5S53.5 45.5 53.5 53v7.5C53.5 53 47.5 47 40 47z" opacity="0.35" />
  </g>
  <text x="80" y="70" font-family="'Montserrat', 'Helvetica Neue', Arial, sans-serif" font-size="18" text-anchor="middle" fill="#ffffff" font-weight="600" letter-spacing="1">MOM</text>
</svg>
