<svg xmlns="http://www.w3.org/2000/svg" viewBox="0 0 160 80" role="img" aria-labelledby="title desc">
  <title id="title">BeaverPhone Ontario Contact Badge</title>
  <desc id="desc">Ontario trillium emblem within a modern gradient card.</desc>
  <defs>
    <linearGradient id="bg" x1="0%" y1="0%" x2="100%" y2="100%">
      <stop offset="0%" stop-color="#0f6937" />
      <stop offset="100%" stop-color="#35a045" />
    </linearGradient>
  </defs>
  <rect width="160" height="80" rx="12" fill="url(#bg)" />
  <g transform="translate(52 18)">
    <circle cx="28" cy="22" r="20" fill="#ffffff" opacity=".15" />
    <path d="M28 5c1.2 0 2.4.6 3.1 1.8l5.7 9.7c.7 1.1.7 2.6 0 3.7l-5.7 9.7c-.7 1.2-1.9 1.8-3.1 1.8s-2.4-.6-3.1-1.8l-5.7-9.7c-.7-1.1-.7-2.5 0-3.7l5.7-9.7C25.6 5.6 26.8 5 28 5z" fill="#ffffff" />
    <path d="M28 19.4c3 0 5.4 2.4 5.4 5.4s-2.4 5.4-5.4 5.4-5.4-2.4-5.4-5.4 2.4-5.4 5.4-5.4z" fill="#0f6937" />
    <path d="M11.6 37.5c-2-.2-3.4-2-3.2-3.9.5-4.7 2.7-8.4 6.8-10.9 3.7-2.2 8.1-3.3 12.8-3.3 4.8 0 9.2 1.1 12.9 3.3 4.1 2.5 6.3 6.3 6.8 10.9.2 2-1.2 3.7-3.2 3.9-4.6.5-9.1.8-13.5.8s-8.9-.3-13.4-.8z" fill="#ffffff" opacity=".85" />
    <path d="M28 8.8l4.1 7-4.1 7-4.1-7 4.1-7z" fill="#35a045" />
  </g>
  <text x="80" y="70" font-family="'Montserrat', 'Helvetica Neue', Arial, sans-serif" font-size="18" text-anchor="middle" fill="#ffffff" font-weight="600" letter-spacing="1">ONTARIO</text>
</svg>
