<svg xmlns="http://www.w3.org/2000/svg" viewBox="0 0 160 80" role="img" aria-labelledby="title desc">
  <title id="title">BeaverPhone Police Contact Badge</title>
  <desc id="desc">Rounded shield with a maple leaf star to represent police services.</desc>
  <defs>
    <linearGradient id="shieldGradient" x1="0%" x2="100%" y1="0%" y2="100%">
      <stop offset="0%" stop-color="#0b3d91" />
      <stop offset="100%" stop-color="#1f75cd" />
    </linearGradient>
  </defs>
  <rect width="160" height="80" rx="12" fill="url(#shieldGradient)" />
  <g transform="translate(30 12)">
    <path d="M50 0L73 10c1.7 0.8 3 2.5 3.2 4.5l3.3 33.1c0.2 2.1-1 4.1-2.9 5L50 62 23.3 52.6c-1.9-0.7-3.1-2.7-2.9-4.9l3.3-33.2C23.8 12.5 25 10.9 27 10L50 0z" fill="#fff" opacity=".2" />
    <path d="M50 6l19.8 8c1 .4 1.7 1.3 1.8 2.4l2.5 25.3c.1 1.2-.6 2.3-1.7 2.8L50 54 28.6 44.5c-1.1-.5-1.8-1.6-1.7-2.8L29.4 16c.1-1.1.8-2 1.8-2.4L50 6z" fill="#f4f9ff" />
    <path d="M50 16l4.5 9.2 10.1 1.5-7.3 7.1 1.7 10-9-4.7-9 4.7 1.7-10-7.3-7.1 10.1-1.5L50 16z" fill="#0b3d91" />
    <path d="M50 21.2l2.8 5.8 6.5 1-4.7 4.6 1.1 6.3-5.7-3-5.7 3 1.1-6.3-4.7-4.6 6.5-1 2.8-5.8z" fill="#ffcc33" />
  </g>
  <text x="80" y="70" font-family="'Montserrat', 'Helvetica Neue', Arial, sans-serif" font-size="18" text-anchor="middle" fill="#ffffff" font-weight="600" letter-spacing="1">POLICE</text>
</svg>
