<svg version="1.1" id="Layer_1" xmlns="http://www.w3.org/2000/svg" xmlns:xlink="http://www.w3.org/1999/xlink" x="0px" y="0px" viewBox="0 0 400 100" style="enable-background:new 0 0 400 100;" xml:space="preserve" preserveAspectRatio="xMidYMid meet" class="logo__svg logo__svg--ospca">
<style>.logo__letter { fill: #fff; }</style>
<g>
  <path class="logo__letter" d="M6.23,34.27V18.74c0-9.44,4.85-15.46,14.88-15.46c10.03,0,14.87,6.03,14.87,15.46v15.53
    c0,13.11-4.85,18.28-14.87,18.28C11.07,52.55,6.23,47.38,6.23,34.27z M29.82,34.53V18.54c0-9.89-6.82-10.22-8.72-10.22
    c-1.9,0-8.72,0.33-8.72,10.22v15.99c0,10.35,3.01,12.97,8.72,12.97S29.82,44.89,29.82,34.53z"></path>
  <path class="logo__letter" d="M79.21,4.26v47.31h-8.26L52.28,10.55h-0.13v41.02h-5.37V4.26h8.52l18.41,40.5h0.13V4.26H79.21z"></path>
  <path class="logo__letter" d="M116.68,4.26V9.5h-12.45v42.07h-6.03V9.5H85.75V4.26H116.68z"></path>
  <path class="logo__letter" d="M128.74,4.26h7.67l15.4,47.31h-6.75l-3.41-11.27h-18.28l-3.54,11.27h-6.09L128.74,4.26z M132.41,9.83h-0.13
    l-7.4,25.23h15.14L132.41,9.83z"></path>
  <path class="logo__letter" d="M163.98,29.81v21.76h-6.03V4.26h16.32c8.39,0,11.34,5.9,11.34,11.79c0,5.57-3.08,9.83-8.65,10.81V27
    c5.44,0.85,7.4,2.69,7.73,12.19c0.07,2.03,0.72,9.44,1.64,12.38h-6.29c-1.7-3.28-1.31-9.44-1.83-15.73
    c-0.46-5.77-5.11-6.03-7.14-6.03H163.98z M163.98,24.57h9.04c4.33,0,6.42-3.73,6.42-7.86c0-3.41-1.7-7.21-6.36-7.21h-9.11V24.57z"></path>
  <path class="logo__letter" d="M201.32,51.57h-6.03V4.26h6.03V51.57z"></path>
  <path class="logo__letter" d="M212.52,34.27V18.74c0-9.44,4.85-15.46,14.88-15.46s14.87,6.03,14.87,15.46v15.53
    c0,13.11-4.85,18.28-14.87,18.28S212.52,47.38,212.52,34.27z M236.11,34.53V18.54c0-9.89-6.82-10.22-8.72-10.22
    c-1.9,0-8.72,0.33-8.72,10.22v15.99c0,10.35,3.01,12.97,8.72,12.97C233.1,47.51,236.11,44.89,236.11,34.53z"></path>
  <path class="logo__letter" d="M264.41,52.36c-12.25,0-14.55-7.21-14.02-15.4h9.89c0,4.52,0.2,8.32,5.64,8.32c3.34,0,4.98-2.16,4.98-5.37
    c0-8.52-19.92-9.04-19.92-23.13c0-7.4,3.54-13.3,15.6-13.3c9.63,0,14.42,4.32,13.76,14.22h-9.63c0-3.54-0.59-7.14-4.59-7.14
    c-3.21,0-5.11,1.77-5.11,5.05c0,8.98,19.92,8.19,19.92,23.07C280.92,50.91,271.95,52.36,264.41,52.36z"></path>
  <path class="logo__letter" d="M288.06,4.26h17.82c9.04,0,12.58,5.5,12.58,14.15c0,5.37-1.57,13.89-13.17,13.89h-7.34v19.27h-9.89V4.26z
     M297.95,25.03h5.5c2.95,0,4.98-3.21,4.98-6.36c0-3.87-1.05-7.14-5.5-7.14h-4.98V25.03z"></path>
  <path class="logo__letter" d="M323.96,27.91c0-12.52,0-24.44,16.32-24.44c10.09,0,14.15,5.57,13.76,15.73h-9.7c0-6.29-1.11-8.65-4.06-8.65
    c-5.57,0-6.29,5.24-6.29,17.36s0.72,17.36,6.29,17.36c4.59,0,4.39-5.9,4.52-9.63h9.76c0,12.65-5.05,16.71-14.28,16.71
    C323.96,52.36,323.96,40.3,323.96,27.91z"></path>
  <path class="logo__letter" d="M357.24,51.57l13.11-47.31h13.04l12.84,47.31h-10.42l-2.62-10.48h-13.5L367,51.57H357.24z M376.3,13.37h-0.13
    l-4.52,20.44h9.44L376.3,13.37z"></path>
  <path class="logo__letter" d="M12.06,66.77h4.49l9.02,27.72h-3.96l-2-6.6H8.91l-2.07,6.6H3.26L12.06,66.77z M14.21,70.03h-0.08L9.79,84.81
    h8.87L14.21,70.03z"></path>
  <path class="logo__letter" d="M48.89,66.77v27.72h-4.84L33.11,70.45h-0.08v24.04h-3.15V66.77h4.99L45.67,90.5h0.08V66.77H48.89z"></path>
  <path class="logo__letter" d="M55.99,66.77h8.52c3.53,0,6.07,1.27,7.45,4.22c1.11,2.34,1.23,7.87,1.23,8.75c0,5.91-0.54,9.33-1.69,11.17
    c-1.5,2.38-4.3,3.57-9.14,3.57h-6.37V66.77z M59.53,91.42h3.34c4.92,0,6.72-1.84,6.72-8.29v-5.61c0-5.61-1.73-7.68-5.41-7.68h-4.65
    V91.42z"></path>
  <path class="logo__letter" d="M90.75,94.49V66.77h3.53v11.98h9.72V66.77h3.53v27.72h-3.53V81.82h-9.72v12.67H90.75z"></path>
  <path class="logo__letter" d="M115.17,66.77h3.53v17.74c0,6.07,1.84,7.6,5.18,7.6c3.34,0,5.18-1.54,5.18-7.6V66.77h3.53v17.59
    c0,7.68-2.84,10.71-8.72,10.71c-5.88,0-8.72-3.03-8.72-10.71V66.77z"></path>
  <path class="logo__letter" d="M143.4,94.49h-3.3V66.77h5.72l6.99,23.27h0.08l7.07-23.27h5.84v27.72h-3.53V69.84h-0.08l-7.76,24.65h-3.34
    l-7.6-24.65h-0.08V94.49z"></path>
  <path class="logo__letter" d="M179.61,66.77h4.49l9.02,27.72h-3.96l-2-6.6h-10.71l-2.07,6.6h-3.57L179.61,66.77z M181.76,70.03h-0.08
    l-4.34,14.78h8.87L181.76,70.03z"></path>
  <path class="logo__letter" d="M217.32,66.77v27.72h-4.84l-10.94-24.04h-0.08v24.04h-3.15V66.77h4.99L214.1,90.5h0.08V66.77H217.32z"></path>
  <path class="logo__letter" d="M225.04,94.49V66.77h14.28v3.07h-10.75v8.91h9.98v3.07h-9.98v9.6h10.98v3.07H225.04z"></path>
  <path class="logo__letter" d="M258.11,86.23v0.81c0,3.76,2.38,4.95,4.65,4.95c2.8,0,4.95-1.19,4.95-4.49c0-6.14-12.44-5.45-12.44-13.79
    c0-4.92,3.49-7.53,8.14-7.53c5.07,0,7.91,2.46,7.68,8.1h-3.69c0.04-3.03-0.92-5.03-4.26-5.03c-2.11,0-4.26,1.07-4.26,4.07
    c0,6.11,12.44,5.22,12.44,14.02c0,5.84-4.03,7.72-8.6,7.72c-8.18,0.08-8.18-6.18-8.1-8.83H258.11z"></path>
  <path class="logo__letter" d="M277.92,84.35v-9.1c0-5.53,2.84-9.06,8.72-9.06c5.87,0,8.72,3.53,8.72,9.06v9.1c0,7.68-2.84,10.71-8.72,10.71
    C280.76,95.07,277.92,92.03,277.92,84.35z M291.75,84.51v-9.37c0-5.8-3.99-5.99-5.11-5.99c-1.11,0-5.11,0.19-5.11,5.99v9.37
    c0,6.07,1.77,7.6,5.11,7.6C289.98,92.11,291.75,90.57,291.75,84.51z"></path>
  <path class="logo__letter" d="M315.02,74.41c0.04-1.57-0.08-3.15-0.81-4.03c-0.73-0.88-2.38-1.19-3.11-1.19c-2.92,0-4.07,1.77-4.19,2.15
    c-0.12,0.31-0.81,1-0.81,5.76v7.41c0,6.8,2.23,7.6,4.95,7.6c1.07,0,4.34-0.38,4.38-5.8h3.65c0.15,8.76-6.03,8.76-7.83,8.76
    c-3.46,0-8.75-0.23-8.75-10.98v-7.83c0-7.83,3.46-10.06,8.91-10.06c5.49,0,7.6,2.84,7.26,8.22H315.02z"></path>
  <path class="logo__letter" d="M329.46,94.49h-3.53V66.77h3.53V94.49z"></path>
  <path class="logo__letter" d="M337.45,94.49V66.77h14.28v3.07h-10.75v8.91h9.98v3.07h-9.98v9.6h10.98v3.07H337.45z"></path>
  <path class="logo__letter" d="M373.51,66.77v3.07h-7.3v24.65h-3.53V69.84h-7.3v-3.07H373.51z"></path>
  <path class="logo__letter" d="M390.64,66.77h3.57l-7.56,17.16v10.56h-3.53V83.93l-7.45-17.16h3.95l5.41,13.4L390.64,66.77z"></path>
</g>
<g>
  <path class="logo__letter" d="M6.23,34.27V18.74c0-9.44,4.85-15.46,14.88-15.46c10.03,0,14.87,6.03,14.87,15.46v15.53
    c0,13.11-4.85,18.28-14.87,18.28C11.07,52.55,6.23,47.38,6.23,34.27z M29.82,34.53V18.54c0-9.89-6.82-10.22-8.72-10.22
    c-1.9,0-8.72,0.33-8.72,10.22v15.99c0,10.35,3.01,12.97,8.72,12.97S29.82,44.89,29.82,34.53z"></path>
  <path class="logo__letter" d="M79.21,4.26v47.31h-8.26L52.28,10.55h-0.13v41.02h-5.37V4.26h8.52l18.41,40.5h0.13V4.26H79.21z"></path>
  <path class="logo__letter" d="M116.68,4.26V9.5h-12.45v42.07h-6.03V9.5H85.75V4.26H116.68z"></path>
  <path class="logo__letter" d="M128.74,4.26h7.67l15.4,47.31h-6.75l-3.41-11.27h-18.28l-3.54,11.27h-6.09L128.74,4.26z M132.41,9.83h-0.13
    l-7.4,25.23h15.14L132.41,9.83z"></path>
  <path class="logo__letter" d="M163.98,29.81v21.76h-6.03V4.26h16.32c8.39,0,11.34,5.9,11.34,11.79c0,5.57-3.08,9.83-8.65,10.81V27
    c5.44,0.85,7.4,2.69,7.73,12.19c0.07,2.03,0.72,9.44,1.64,12.38h-6.29c-1.7-3.28-1.31-9.44-1.83-15.73
    c-0.46-5.77-5.11-6.03-7.14-6.03H163.98z M163.98,24.57h9.04c4.33,0,6.42-3.73,6.42-7.86c0-3.41-1.7-7.21-6.36-7.21h-9.11V24.57z"></path>
  <path class="logo__letter" d="M201.32,51.57h-6.03V4.26h6.03V51.57z"></path>
  <path class="logo__letter" d="M212.52,34.27V18.74c0-9.44,4.85-15.46,14.88-15.46s14.87,6.03,14.87,15.46v15.53
    c0,13.11-4.85,18.28-14.87,18.28S212.52,47.38,212.52,34.27z M236.11,34.53V18.54c0-9.89-6.82-10.22-8.72-10.22
    c-1.9,0-8.72,0.33-8.72,10.22v15.99c0,10.35,3.01,12.97,8.72,12.97C233.1,47.51,236.11,44.89,236.11,34.53z"></path>
  <path class="logo__letter" d="M264.41,52.36c-12.25,0-14.55-7.21-14.02-15.4h9.89c0,4.52,0.2,8.32,5.64,8.32c3.34,0,4.98-2.16,4.98-5.37
    c0-8.52-19.92-9.04-19.92-23.13c0-7.4,3.54-13.3,15.6-13.3c9.63,0,14.42,4.32,13.76,14.22h-9.63c0-3.54-0.59-7.14-4.59-7.14
    c-3.21,0-5.11,1.77-5.11,5.05c0,8.98,19.92,8.19,19.92,23.07C280.92,50.91,271.95,52.36,264.41,52.36z"></path>
  <path class="logo__letter" d="M288.06,4.26h17.82c9.04,0,12.58,5.5,12.58,14.15c0,5.37-1.57,13.89-13.17,13.89h-7.34v19.27h-9.89V4.26z
     M297.95,25.03h5.5c2.95,0,4.98-3.21,4.98-6.36c0-3.87-1.05-7.14-5.5-7.14h-4.98V25.03z"></path>
  <path class="logo__letter" d="M323.96,27.91c0-12.52,0-24.44,16.32-24.44c10.09,0,14.15,5.57,13.76,15.73h-9.7c0-6.29-1.11-8.65-4.06-8.65
    c-5.57,0-6.29,5.24-6.29,17.36s0.72,17.36,6.29,17.36c4.59,0,4.39-5.9,4.52-9.63h9.76c0,12.65-5.05,16.71-14.28,16.71
    C323.96,52.36,323.96,40.3,323.96,27.91z"></path>
  <path class="logo__letter" d="M357.24,51.57l13.11-47.31h13.04l12.84,47.31h-10.42l-2.62-10.48h-13.5L367,51.57H357.24z M376.3,13.37h-0.13
    l-4.52,20.44h9.44L376.3,13.37z"></path>
  <path class="logo__letter" d="M12.06,66.77h4.49l9.02,27.72h-3.96l-2-6.6H8.91l-2.07,6.6H3.26L12.06,66.77z M14.21,70.03h-0.08L9.79,84.81
    h8.87L14.21,70.03z"></path>
  <path class="logo__letter" d="M48.89,66.77v27.72h-4.84L33.11,70.45h-0.08v24.04h-3.15V66.77h4.99L45.67,90.5h0.08V66.77H48.89z"></path>
  <path class="logo__letter" d="M55.99,66.77h8.52c3.53,0,6.07,1.27,7.45,4.22c1.11,2.34,1.23,7.87,1.23,8.75c0,5.91-0.54,9.33-1.69,11.17
    c-1.5,2.38-4.3,3.57-9.14,3.57h-6.37V66.77z M59.53,91.42h3.34c4.92,0,6.72-1.84,6.72-8.29v-5.61c0-5.61-1.73-7.68-5.41-7.68h-4.65
    V91.42z"></path>
  <path class="logo__letter" d="M90.75,94.49V66.77h3.53v11.98h9.72V66.77h3.53v27.72h-3.53V81.82h-9.72v12.67H90.75z"></path>
  <path class="logo__letter" d="M115.17,66.77h3.53v17.74c0,6.07,1.84,7.6,5.18,7.6c3.34,0,5.18-1.54,5.18-7.6V66.77h3.53v17.59
    c0,7.68-2.84,10.71-8.72,10.71c-5.88,0-8.72-3.03-8.72-10.71V66.77z"></path>
  <path class="logo__letter" d="M143.4,94.49h-3.3V66.77h5.72l6.99,23.27h0.08l7.07-23.27h5.84v27.72h-3.53V69.84h-0.08l-7.76,24.65h-3.34
    l-7.6-24.65h-0.08V94.49z"></path>
  <path class="logo__letter" d="M179.61,66.77h4.49l9.02,27.72h-3.96l-2-6.6h-10.71l-2.07,6.6h-3.57L179.61,66.77z M181.76,70.03h-0.08
    l-4.34,14.78h8.87L181.76,70.03z"></path>
  <path class="logo__letter" d="M217.32,66.77v27.72h-4.84l-10.94-24.04h-0.08v24.04h-3.15V66.77h4.99L214.1,90.5h0.08V66.77H217.32z"></path>
  <path class="logo__letter" d="M225.04,94.49V66.77h14.28v3.07h-10.75v8.91h9.98v3.07h-9.98v9.6h10.98v3.07H225.04z"></path>
  <path class="logo__letter" d="M258.11,86.23v0.81c0,3.76,2.38,4.95,4.65,4.95c2.8,0,4.95-1.19,4.95-4.49c0-6.14-12.44-5.45-12.44-13.79
    c0-4.92,3.49-7.53,8.14-7.53c5.07,0,7.91,2.46,7.68,8.1h-3.69c0.04-3.03-0.92-5.03-4.26-5.03c-2.11,0-4.26,1.07-4.26,4.07
    c0,6.11,12.44,5.22,12.44,14.02c0,5.84-4.03,7.72-8.6,7.72c-8.18,0.08-8.18-6.18-8.1-8.83H258.11z"></path>
  <path class="logo__letter" d="M277.92,84.35v-9.1c0-5.53,2.84-9.06,8.72-9.06c5.87,0,8.72,3.53,8.72,9.06v9.1c0,7.68-2.84,10.71-8.72,10.71
    C280.76,95.07,277.92,92.03,277.92,84.35z M291.75,84.51v-9.37c0-5.8-3.99-5.99-5.11-5.99c-1.11,0-5.11,0.19-5.11,5.99v9.37
    c0,6.07,1.77,7.6,5.11,7.6C289.98,92.11,291.75,90.57,291.75,84.51z"></path>
  <path class="logo__letter" d="M315.02,74.41c0.04-1.57-0.08-3.15-0.81-4.03c-0.73-0.88-2.38-1.19-3.11-1.19c-2.92,0-4.07,1.77-4.19,2.15
    c-0.12,0.31-0.81,1-0.81,5.76v7.41c0,6.8,2.23,7.6,4.95,7.6c1.07,0,4.34-0.38,4.38-5.8h3.65c0.15,8.76-6.03,8.76-7.83,8.76
    c-3.46,0-8.75-0.23-8.75-10.98v-7.83c0-7.83,3.46-10.06,8.91-10.06c5.49,0,7.6,2.84,7.26,8.22H315.02z"></path>
  <path class="logo__letter" d="M329.46,94.49h-3.53V66.77h3.53V94.49z"></path>
  <path class="logo__letter" d="M337.45,94.49V66.77h14.28v3.07h-10.75v8.91h9.98v3.07h-9.98v9.6h10.98v3.07H337.45z"></path>
  <path class="logo__letter" d="M373.51,66.77v3.07h-7.3v24.65h-3.53V69.84h-7.3v-3.07H373.51z"></path>
  <path class="logo__letter" d="M390.64,66.77h3.57l-7.56,17.16v10.56h-3.53V83.93l-7.45-17.16h3.95l5.41,13.4L390.64,66.77z"></path>
</g>
</svg>
