<svg xmlns="http://www.w3.org/2000/svg" viewBox="0 0 160 80" role="img" aria-labelledby="title desc">
  <title id="title">BeaverPhone SPCA Contact Badge</title>
  <desc id="desc">Rounded card with a heart and paw print representing SPCA support.</desc>
  <defs>
    <linearGradient id="bgGradient" x1="0%" y1="0%" x2="100%" y2="100%">
      <stop offset="0%" stop-color="#0bb7a9" />
      <stop offset="100%" stop-color="#37d6c4" />
    </linearGradient>
  </defs>
  <rect width="160" height="80" rx="14" fill="url(#bgGradient)" />
  <g transform="translate(48 16)">
    <path d="M32.7 15.5c2.5-2.6 2.4-6.9-.2-9.5-2.6-2.5-6.8-2.4-9.3.1l-1.2 1.3-1.2-1.3c-2.5-2.6-6.7-2.6-9.3-.1-2.6 2.6-2.7 6.9-.1 9.5l10.6 10.9 10.7-10.9z" fill="#ffffff" opacity=".9" />
    <g fill="#0b3d91">
      <circle cx="17" cy="7" r="4" />
      <circle cx="27" cy="7" r="4" />
      <circle cx="12" cy="15" r="3.5" />
      <circle cx="32" cy="15" r="3.5" />
      <path d="M22 19c-4.9 0-8.9 3.9-8.9 8.8 0 2.6 1.1 4.9 3 6.6 1.9 1.7 3.8 2.5 5.9 2.5s4-0.8 5.9-2.5c1.9-1.7 3-4 3-6.6 0-4.8-3.9-8.8-8.9-8.8z" />
    </g>
  </g>
  <text x="80" y="70" font-family="'Montserrat', 'Helvetica Neue', Arial, sans-serif" font-size="18" text-anchor="middle" fill="#ffffff" font-weight="600" letter-spacing="1">SPCA</text>
</svg>
